<svg width="16" height="16" viewBox="0 0 16 16" fill="none" xmlns="http://www.w3.org/2000/svg">
<path d="M2 4.00001L4 1.33334H12L14 4.00001M2 4.00001V13.3333C2 13.687 2.14048 14.0261 2.39052 14.2762C2.64057 14.5262 2.97971 14.6667 3.33333 14.6667H12.6667C13.0203 14.6667 13.3594 14.5262 13.6095 14.2762C13.8595 14.0261 14 13.687 14 13.3333V4.00001M2 4.00001H14M10.6667 6.66668C10.6667 7.37392 10.3857 8.0522 9.88562 8.5523C9.38552 9.05239 8.70724 9.33334 8 9.33334C7.29276 9.33334 6.61448 9.05239 6.11438 8.5523C5.61428 8.0522 5.33333 7.37392 5.33333 6.66668" stroke="#F5F5F5" stroke-width="1.6" stroke-linecap="round" stroke-linejoin="round"/>
</svg>
